# xmcd CD database file
#
# Track frame offsets:
#	150
#	13917
#	27212
#	46852
#	62276
#	82965
#	101148
#	115154
#	134750
#	145513
#	154460
#	164672
#	188840
#	209413
#	225295
#	238966
#	251988
#	270752
#
# Disc length: 3759 seconds
#
# Revision: 0
# Processed by: cddbd v1.5.2PL0 Copyright (c) Steve Scherf et al.
# Submitted via: CDex 1.51
#
DISCID=f70ead12
DTITLE=Blue Fox and the Rockin Daddys - Shades of Blue
DYEAR=2000
DGENRE=Blues
TTITLE0=Oh My Baby Don't Love Me
TTITLE1=Things Aint Right
TTITLE2=Daddy Rolling Stone
TTITLE3=When She Do The Boogie
TTITLE4=Kids Rock
TTITLE5=All I Want
TTITLE6=Willie Bought a T-Bird
TTITLE7=Sweet Home Chicago
TTITLE8=Big Bass Drum
TTITLE9=Going Down The Road
TTITLE10=Reddy Teddy
TTITLE11=Hey Good Looking - Messing
TTITLE12=Statesboro Blues
TTITLE13=Blues and Funk for Bill
TTITLE14=Spanish Blues
TTITLE15=Marie Lavou
TTITLE16=Slow Blues Blast
TTITLE17=Hole In The Bottom Of The Sea
EXTD=YEAR: 2000
EXTT0=
EXTT1=
EXTT2=
EXTT3=
EXTT4=
EXTT5=
EXTT6=
EXTT7=
EXTT8=
EXTT9=
EXTT10=
EXTT11=
EXTT12=
EXTT13=
EXTT14=
EXTT15=
EXTT16=
EXTT17=
PLAYORDER=
